<svg width="38" height="18" viewBox="0 0 38 18" fill="none" xmlns="http://www.w3.org/2000/svg">
<path d="M20.4115 14.8828V12.1676H22.8202C22.8202 12.1676 23.444 17.1966 19.448 17.3376C15.3864 17.4766 15.8682 10.0585 15.8682 10.0585C15.8682 10.0585 15.594 5.23509 19.3824 4.82482C19.3824 4.82482 23.2354 4.55359 22.8956 11.2814H18.3523V15.0219C18.3523 15.0219 18.4943 16.4505 19.4578 16.4505C20.4115 16.376 20.4115 14.8828 20.4115 14.8828ZM20.3459 7.47445C20.2783 5.70999 19.3158 5.70999 19.3158 5.70999C18.2867 5.70999 18.2867 7.47249 18.2867 7.47249V10.2631H20.2793C20.3459 10.1887 20.4115 9.23695 20.3459 7.47249V7.47445ZM30.4607 14.8828V12.1676H32.8694C32.8694 12.1676 33.4932 17.1966 29.4982 17.3376C25.4366 17.4766 25.9183 10.0585 25.9183 10.0585C25.9183 10.0585 25.6442 5.23509 29.4316 4.82482C29.4316 4.82482 33.2856 4.55359 32.9458 11.2814H28.4025V15.0219C28.4025 15.0219 28.5445 16.4505 29.508 16.4505C30.3951 16.376 30.4607 14.8828 30.4607 14.8828ZM30.3951 7.47445C30.3295 5.71097 29.366 5.71097 29.366 5.71097C28.3359 5.71097 28.3359 7.47347 28.3359 7.47347V10.2641H30.3295C30.3951 10.1897 30.3951 9.23792 30.3951 7.47347V7.47445ZM23.2354 17.2622H25.5032V0.60657H23.2354V17.2622ZM35.4868 4.81503V5.49653C35.4868 5.49653 36.7234 4.47917 37.9611 4.68382V6.85855H37.2052C37.2052 6.85855 35.6189 6.92415 35.6189 8.01592V17.2622H33.2768V4.81503H35.4868ZM3.48562 8.63084C3.48562 8.63084 3.00387 4.89042 6.71589 4.82482C6.71589 4.82482 9.87958 4.61919 9.87958 8.63084V17.2622H7.745V16.5807C7.745 16.5807 6.92348 17.3934 5.61041 17.3934C4.30812 17.3934 3.68342 16.5063 3.54242 16.1704C3.12627 15.4889 2.99408 12.9049 3.68342 11.8229C3.68342 11.8229 4.16517 11.0758 5.27064 10.3297C5.81898 9.99384 6.16756 9.71282 6.44173 9.58259C6.58371 9.51797 6.71589 9.37697 6.7815 9.31234C6.7815 9.31234 7.53742 8.77086 7.604 8.56622V6.92415C7.604 6.92415 7.53742 5.76678 6.7061 5.76678C5.87479 5.76678 5.7426 6.98878 5.7426 6.98878V8.62203H3.48562V8.63084ZM6.64931 15.769C7.47181 15.769 7.61281 14.6772 7.61281 14.6772V9.98405C7.47181 10.1241 7.13106 10.3199 6.71589 10.5255C6.29975 10.7958 5.89339 11.0014 5.75239 11.1414C5.54481 11.4117 5.47823 11.7573 5.47823 11.7573V14.7526C5.54481 14.8172 5.75239 15.769 6.64931 15.769ZM2.79629 1.82955C2.65431 1.35367 2.38014 1.21267 2.17256 1.21267C1.54883 1.21267 1.41664 2.0998 1.41664 2.50126C1.41664 3.11715 1.62423 3.72326 2.10598 3.72326C2.17256 3.72326 2.65431 3.72326 2.86189 3.10736L3.48562 3.31299C3.41904 3.51861 3.41904 3.64884 3.21146 3.92888C3.00387 4.19913 2.72971 4.47036 2.18235 4.47036C1.55862 4.47036 0.737103 4.05911 0.737103 2.70688C0.727311 1.4183 1.41664 0.803382 2.17256 0.803382C3.06948 0.803382 3.34364 1.61511 3.34364 1.75513L2.79531 1.82955H2.79629ZM4.65671 4.33915C5.20504 4.33915 5.76219 3.9279 5.76219 2.97713C5.76219 2.36026 5.55362 1.68953 4.65671 1.68953C4.10837 1.68953 3.62662 2.1654 3.62662 3.05155C3.55123 4.0033 4.17496 4.33915 4.65671 4.33915ZM4.65671 3.86328C4.17496 3.86328 4.17496 3.18276 4.17496 2.97713C4.17496 2.56588 4.24154 2.09099 4.65671 2.09099C5.07187 2.09099 5.13846 2.70688 5.13846 2.90272C5.06306 3.11715 5.06306 3.86328 4.65671 3.86328ZM7.88698 4.27453H7.26325V2.43467C7.26325 2.29465 7.26325 2.16442 7.05567 2.16442C6.84808 2.16442 6.71589 2.30444 6.50733 2.50028V4.26278H5.88458V1.68757H6.50831V2.0244C6.64931 1.88438 6.92348 1.61315 7.32983 1.61315C7.6696 1.61315 7.87817 2.29465 7.87817 2.29465V4.27257H7.88698V4.27453ZM10.2291 4.27453V0.605591H9.60639V1.96957C9.33223 1.63372 9.05806 1.63372 8.98267 1.63372C8.43433 1.63372 8.08575 2.24961 8.08575 2.92132C8.08575 3.66745 8.42552 4.20892 8.98267 4.20892C9.32244 4.20892 9.531 3.9377 9.60639 3.87307V4.14332H10.2291V4.27453ZM9.19123 2.23982C9.39783 2.23982 9.531 2.37984 9.60639 2.51007V3.60184C9.53981 3.66744 9.39783 3.87307 9.19025 3.87307C8.77508 3.87307 8.7085 3.33159 8.7085 3.12597C8.7085 2.84592 8.70948 2.23982 9.19123 2.23982ZM11.4668 1.4183L12.2893 0.672174H11.599L10.9753 1.4183H11.4668ZM11.0516 3.11715C11.0516 3.73305 11.3914 3.79767 11.5324 3.79767C11.8066 3.79767 11.9486 3.59205 12.0142 3.46182L12.4959 3.66744C12.4303 3.80747 12.1561 4.34894 11.5334 4.34894C10.9097 4.34894 10.4269 3.87307 10.4269 2.98594C10.4269 2.23982 10.9097 1.69834 11.5334 1.69834C12.0807 1.69834 12.3549 2.0342 12.4959 2.37984C12.5625 2.65009 12.5625 2.85572 12.5625 3.12597H11.0516V3.11617V3.11715ZM12.0142 2.71569C12.0142 2.23982 11.6744 2.0998 11.5324 2.0998C11.3248 2.0998 11.0516 2.23982 11.0516 2.71667L12.0142 2.71569ZM14.5649 0.672174L15.9436 3.05155V0.672174H16.5673V4.27355H15.9436L14.5649 1.75513V4.27355H13.9412V0.672174H14.5649ZM18.8341 4.20892C18.7685 4.0689 18.7685 3.87307 18.7685 3.73305V2.57567C18.7685 1.89417 18.2201 1.76394 17.8706 1.76394C17.5308 1.76394 17.1812 1.90397 16.9071 2.23982L17.2478 2.57567C17.3888 2.37005 17.5876 2.23982 17.7961 2.23982C18.0027 2.23982 18.2113 2.37984 18.2113 2.65107V2.71569C17.521 2.7813 16.8317 3.05155 16.8317 3.66744C16.8317 4.07869 17.1724 4.34894 17.5876 4.34894C17.9274 4.34894 18.1359 4.14332 18.2769 4.07772C18.2769 4.14332 18.2769 4.21774 18.3435 4.34894H18.8252L18.8341 4.20892ZM17.3898 3.52644C17.3898 3.11519 18.0135 2.98497 18.2123 2.98497V3.60184C18.1457 3.66647 17.8715 3.87209 17.664 3.87209C17.522 3.79669 17.3898 3.73207 17.3898 3.52644ZM20.4879 2.30444C20.2137 2.09882 20.0727 2.09882 19.9395 2.09882C19.7329 2.09882 19.5998 2.23884 19.5998 2.36907C19.5998 2.57469 19.8083 2.6403 20.0815 2.7059C20.4223 2.77053 20.9794 2.91153 20.9794 3.45203C20.9794 3.78788 20.7052 4.26376 19.9493 4.26376C19.402 4.26376 19.1278 3.99351 18.9868 3.78788L19.3266 3.51763C19.4067 3.60246 19.5032 3.67014 19.6103 3.71659C19.7173 3.76304 19.8326 3.7873 19.9493 3.78788C20.1579 3.78788 20.3655 3.72228 20.3655 3.51763C20.3655 3.31201 20.1579 3.2464 19.8837 3.18178C19.6096 3.11617 18.9868 2.97615 18.9868 2.36907C18.9868 1.9588 19.402 1.55734 19.8837 1.55734C20.2989 1.55734 20.6396 1.76297 20.7806 1.8932L20.4879 2.30444ZM21.9331 0.87682V1.68855H22.3493V2.16442H21.9331V3.52644C21.9331 3.73207 22.1407 3.73207 22.3493 3.79669V4.33817C22.0085 4.33817 21.8009 4.33817 21.5934 4.19815C21.3858 4.05813 21.3192 3.7869 21.3192 3.51763V2.1654H20.9696V1.68953H21.3104V0.87682H21.9331Z" fill="#555555"/>
</svg>
